<mxfile host="app.diagrams.net" modified="2022-05-11T12:51:30.195Z" agent="5.0 (X11; Linux x86_64) AppleWebKit/537.36 (KHTML, like Gecko) Chrome/101.0.4951.54 Safari/537.36 Edg/101.0.1210.39" etag="Mw6Rj4-Hd2UaPl2PH24y" version="18.0.2" type="github">
  <diagram id="Q32LmwCqWVNN2P98G-VT" name="Page-1">
    <mxGraphModel dx="1421" dy="829" grid="1" gridSize="10" guides="1" tooltips="1" connect="1" arrows="1" fold="1" page="1" pageScale="1" pageWidth="1169" pageHeight="827" math="0" shadow="0">
      <root>
        <mxCell id="0" />
        <mxCell id="1" parent="0" />
        <mxCell id="ozPDJMpgmjUV9LJB_S5g-15" value="Amazon RDS" style="sketch=0;outlineConnect=0;fontColor=#232F3E;gradientColor=none;strokeColor=#ffffff;fillColor=#232F3E;dashed=0;verticalLabelPosition=middle;verticalAlign=bottom;align=center;html=1;whiteSpace=wrap;fontSize=10;fontStyle=1;spacing=3;shape=mxgraph.aws4.productIcon;prIcon=mxgraph.aws4.rds;" vertex="1" parent="1">
          <mxGeometry x="840.13" y="470" width="90" height="110" as="geometry" />
        </mxCell>
        <mxCell id="FXjmR_UEEns01j3KOp-w-18" value="Availability zone" style="sketch=0;outlineConnect=0;gradientColor=none;html=1;whiteSpace=wrap;fontSize=12;fontStyle=0;shape=mxgraph.aws4.group;grIcon=mxgraph.aws4.group_availability_zone;strokeColor=#3399FF;fillColor=none;verticalAlign=top;align=left;spacingLeft=30;fontColor=#3399FF;dashed=1;" parent="1" vertex="1">
          <mxGeometry x="220" y="460" width="910" height="320" as="geometry" />
        </mxCell>
        <object label="Data Subnet" id="FXjmR_UEEns01j3KOp-w-22">
          <mxCell style="sketch=0;outlineConnect=0;gradientColor=none;html=1;whiteSpace=wrap;fontSize=12;fontStyle=0;shape=mxgraph.aws4.group;grIcon=mxgraph.aws4.group_subnet;strokeColor=#879196;fillColor=none;verticalAlign=top;align=left;spacingLeft=30;fontColor=#879196;dashed=0;" parent="1" vertex="1">
            <mxGeometry x="820" y="100" width="279" height="670" as="geometry" />
          </mxCell>
        </object>
        <mxCell id="FXjmR_UEEns01j3KOp-w-10" value="Availability zone" style="sketch=0;outlineConnect=0;gradientColor=none;html=1;whiteSpace=wrap;fontSize=12;fontStyle=0;shape=mxgraph.aws4.group;grIcon=mxgraph.aws4.group_availability_zone;strokeColor=#3399FF;fillColor=none;verticalAlign=top;align=left;spacingLeft=30;fontColor=#3399FF;dashed=1;" parent="1" vertex="1">
          <mxGeometry x="220" y="60" width="910" height="300" as="geometry" />
        </mxCell>
        <mxCell id="FXjmR_UEEns01j3KOp-w-4" value="Region" style="sketch=0;outlineConnect=0;gradientColor=none;html=1;whiteSpace=wrap;fontSize=12;fontStyle=0;shape=mxgraph.aws4.group;grIcon=mxgraph.aws4.group_region;strokeColor=#879196;fillColor=none;verticalAlign=top;align=left;spacingLeft=30;fontColor=#FF9933;dashed=1;" parent="1" vertex="1">
          <mxGeometry x="140" y="10" width="20" height="20" as="geometry" />
        </mxCell>
        <mxCell id="FXjmR_UEEns01j3KOp-w-19" value="Public Subnet" style="sketch=0;outlineConnect=0;gradientColor=none;html=1;whiteSpace=wrap;fontSize=12;fontStyle=0;shape=mxgraph.aws4.group;grIcon=mxgraph.aws4.group_subnet;strokeColor=#879196;fillColor=none;verticalAlign=top;align=left;spacingLeft=30;fontColor=#879196;dashed=0;" parent="1" vertex="1">
          <mxGeometry x="340" y="100" width="190" height="670" as="geometry" />
        </mxCell>
        <mxCell id="FXjmR_UEEns01j3KOp-w-21" value="App Subnet" style="sketch=0;outlineConnect=0;gradientColor=none;html=1;whiteSpace=wrap;fontSize=12;fontStyle=0;shape=mxgraph.aws4.group;grIcon=mxgraph.aws4.group_subnet;strokeColor=#879196;fillColor=none;verticalAlign=top;align=left;spacingLeft=30;fontColor=#879196;dashed=0;" parent="1" vertex="1">
          <mxGeometry x="580" y="100" width="190" height="670" as="geometry" />
        </mxCell>
        <mxCell id="FXjmR_UEEns01j3KOp-w-23" value="Amazon EKS" style="sketch=0;outlineConnect=0;fontColor=#232F3E;gradientColor=none;strokeColor=#ffffff;fillColor=#C7C9C9;dashed=0;verticalLabelPosition=middle;verticalAlign=bottom;align=center;html=1;whiteSpace=wrap;fontSize=10;fontStyle=1;spacing=3;shape=mxgraph.aws4.productIcon;prIcon=mxgraph.aws4.eks;" parent="1" vertex="1">
          <mxGeometry x="839.5" y="128" width="98.75" height="120" as="geometry" />
        </mxCell>
        <mxCell id="ozPDJMpgmjUV9LJB_S5g-8" value="" style="shape=image;imageAspect=0;aspect=fixed;verticalLabelPosition=bottom;verticalAlign=top;fontColor=#FF9933;strokeColor=#3399FF;image=data:image/png,iVBORw0KGgoAAAANSUhEUgAAAFYAAABcCAIAAAB7r9XGAAAAA3NCSVQICAjb4U/gAAAAEHRFWHRTb2Z0d2FyZQBTaHV0dGVyY4LQCQAAGwhJREFUeNrtXHlUVNf9f/e9Nxszw7DNyLDDOAREEQ3qQY1YqS1WtI3WhbpECbigHtwwIUpKDBQ02hobRILHgBr1UNSoMSoUFVTiSERAFMMOIgzCgDgw21vm98f99XXKMuCAtue09w+PZ+Zx597P+97v8vl+vxcYjUbkv3ugyH/9wN/mjxkMBqVSqVQqW1tby8rKSktLlUplR0dHR0fHy5cvuVwuj8fj8XgikUgul8vlcm9vb29vb2dnZycnJysrqze0KvCmD4LRaKRpurm5+eLFi1evXq2pqeno6Ojp6TH+Y8Bn/rkgAEz/5XA4EonE0dFx2rRpERER48aNwzAMfvufDoHRaKQoqqWlpays7MyZM1euXOnt7aVpmvk5AAAAAEVRHo9nZWXFZrMRBKEoSqfT9fb2kiRpihGCICiKstns0NDQyMjIqVOn2tvboyj6HwoBXPfLly9TUlIuXbrU2Nio0+n+5ScBAABIJJKFCxfOmTPHw8PDysqKxWIBAEiS1Ov1PT091dXVxcXFhYWFVVVVfYSFzWZPnjw5MTHxF7/4BZxqdFY8WoOiqMrKyoSEBGtr6wHXBwCYOHFiampqV1cXRVH04IOiKJIkq6qq9u/fHxIS4uzszMwGAOByuTExMS0tLVCyRjKQUdy8RqPZs2ePu7s7juMoirJYrICAgIULF+I4DiXZ2dk5IyPj+fPncPPDmRZi0dvb+/Tp07S0NEYXAAAwDJs6derjx48pivo3Q0DTdFdX19mzZ318fDAMY7FY48aNW79+/d27d58/f37kyBEOhyMWiyMjI+vq6kayXIqi1Gp1RkbG9OnT+Xw+BGLcuHFFRUWmuuOtQgBf0YMHD4KCgqysrFAU9fX1zc7Obm5uJkmyoaFhypQpQqFQLpffunWLIIjRkrjOzs6LFy/CowEAcHJyunHjhsXgjgiClpaWffv2iUQiFEXlcnlKSsqrV69omjYYDIWFhQEBASKRaMuWLWq1euQntr9ElJeXT5kyBUVRiMLNmzctkwXE4vd/584df39/FovFZrM3b97c0NAAV0BRVEZGhr29vbe3d1FRkVarHfX9M2tobGwMCgqCKEil0lu3blkgC5ZAQJLkt99+a2Njg2GYm5tbRkaGXq9n9llaWiqRSAIDAx8+fDhCRTUcFCorK8ePH8/ohcrKytdFHLFAAk+ePAmFf8KECWVlZcxP0jStUqn8/f1DQkKeP39ufCuDpunS0lJGLwQGBjY3N78WCq8NwZ07d+zt7QEAkyZNqqioMP0xiqL27dsXGBhYXV39hoR/MKk8evQo9C8xDFu7dq3BYHhTEBAEMXfuXBRFx40bV1VVZSrnFEXV1tYGBgb2+fztCIJer4+Pj4cuA4fDOXHixPDX8HoQZGdn4zjO4XCys7MNBkN3d3dlZeWjR4/q6uoKCgr8/f0PHTo0EhNtmWl49epVVVWVQqEICgqCvqOXl1dNTc3oQ6DT6SZPnoyiaERERH19/Weffebv7+/k5OTo6Ojq6mpnZ+fr69vb2zt8hwKOkRwZkiTPnj3r5+fn7Ozs7OxsY2MDnWgURb/44othCgIyfLCvXLliZ2cHAPDw8GCz2VD94Dju7OwM/dbQ0NDh7AfGEVlZWbt27UpOTi4qKnqto2uKY35+vq2trWl8zYwJEyaYhuQjhUCr1e7atcvOzg7Gp9A/d3JySkhIKCsra2pqev78+dixYzkczvPnz82gQNM0SZKff/65o6Mjm83GMAzDMFtb29OnT1sgCzRNL1u2bMyYMe+///7SpUvHjh2L4zgDBI7j2dnZowMBXDSXy4VTs1isKVOmpKWldXd3kyQJl06S5LJlyzAMy83NHWwzNE2/ePEiKioKRVEURTEM4/F4NjY2XC43OjrasuNw5syZ1tZWgiAIgtBqtbm5uQsXLmTCh5CQEL1ePwoQXLt2jc/nw/1jGLZly5a2trY+K6YoKjY2FsMwM6qYJMkPP/wQwzAURT08PNLT0ysrK6urq588eVJTUzNaRrSnp2f//v3QNLi7u9fV1Q058xAQdHd3T506FUqXSCT6y1/+MmC0Q9P0p59+imFYZmbmgBDQNJ2cnIxhGJvN3rNnj06nM6UGRt1GQLEVCoW3bt0aEQQ0Td++fdvGxgbq2Pj4eFNHuM+vxsXFYRiWk5PTHwKapp8+fWptbc1isY4dOwb3/0YtZXt7+9SpUzEMO3z48JB2ATVPKCkUCrVaDQDw9fWNjY2F9NaAD3d2diIIYsrtmM5TVFSk0+mWLFmyevVqDoczuvxn/2Fvbz9v3jwAQEFBwUjzCHfv3jUajSiKfvzxxwKBYLCl0zTd0tICAHjnnXcGfKapqQkAsGXLFhaL9RbYegDA/PnzAQClpaVDk6PmbYFcLgcA2NvbV1VVmZFeg8Hg7+8/adKkAZ+hafqHH36Ii4t7044jNLrw/729vXZ2dmw2W61WW64LDAYDh8NBEMTX17elpcW84ygSiT766KPBYCJJ0mAwmHcZamtrOzo6RqIm2travvnmGyacmTFjBoqiJSUl5uc0dxA6OzsJgkAQRCAQQCwGG3V1dQaDYe7cuYM9ADlF8ypArVbHxcVRFDXYAzAcMiPYbDb7yJEjHR0d8Bk3Nzej0VhZWWn+LKBmDoharWamxjDMzCyPHj2ytrb28fGxWM8BAFxdXc+fP//zzz8P9kxHR8fGjRvN7IfP5xsMhqKiIjihvb09giC1tbWWq0OSJIe5gfLycqlUyuPxRqLD7OzsZs+effny5cE2SdP0tWvXoOkZTNbCwsJSU1MpigIA2NnZIQjS1dVloRTAl89gQdO0mScbGxsdHByY5y0eycnJp0+f1mg0A37LYrGEQuGf/vSnwQ4LAGDZsmXFxcUXLlygaRpC8PLlSwulABKS8MXq9XqoaWGQa5oahEOr1fL5fJgyGclwd3efOHHikiVLIO/W51sejyeXy0+dOvXkyZPB1gzD1qSkpBcvXsCD0N3dbflBYLPZfn5+AACNRqPX65ubm7/66qtt27bt3r07Ly+PcfIQBBEKhaYpUAsyeswvrlmzJj8/f8OGDf3ljsvlzp49u6ur6+TJk6aCAC0OSZJarbahoQFF0SdPnly9epWRgiEWZt7ZXr58OYqiIpEoJCSEy+WaZvW8vLwOHjwIOZJ9+/bNnDmzu7vbAkt+7969mpoaJrZXqVTe3t4AALjPPg83NTXZ29sLhUKoMhg6Xy6XC4VCRmdzudxDhw7l5+cDAGbNmmU+izOEazRnzhyGkIA0AY7jMGUIs4bvv/++wWB4+PChm5tba2vr6+6/trZWKBQKBAIbG5vx48eHhIS4uLjAsD8hIWHAcCM1NRXHcVdX19raWiiG1dXVkDiB2XqhUHj06FGdTnf79m0AwNy5cy2EgCTJr776CuIKAHBwcNi0adOFCxdKSkqKi4thhhOG/SkpKb29vRMnTjRDFgw2lEqlXC5nMqXMNvz9/evr6wecraurKzg4mMViffDBBzBPYzAYLl++vHXr1m3bth09ehRmLmma/vHHH6GnbN4rHRSCpqYm6B1Dpqy8vJwgCIbto2laqVS6ubkBAPz9/dvb29evX79u3ToLfLvOzs6dO3eOGTMGypdAIFi0aFFjY6OZqYqKilgsFoZhO3bsYN5w/7hboVAAABYtWmQhBDdv3hQIBAiCWFtbw9fb3t5+4sSJw4cP5+bmwqg5PT2dxWJxOJyGhoZt27Y5OztbHAXQNN3d3a1SqYbD81AUBRPWfD7/+PHjgwUmubm5AIA//OEPlkBA03RmZibUAp999hnUt6GhoWw2G8dxLpcbHh6uVqurq6vHjBmDIMiCBQsEAgGO428tidTb2wtVNZ/PVygUA24hOzsbALBt2zbzEAxqFJ89e2Y0Gu3s7JYsWQIAuHjxoqen5/jx42maJggiJyfnk08+kUql0Cn+/vvvNRqNQCCAMcVbGDwe78CBA9OnT9fpdMuWLSsrK+tj+aDWQBDExcXFvNuOmgkQoN8OifNJkyYdPHiwp6fH29s7Nzc3NDT066+/VigUCxYswHGcz+f/7ne/UygUbm5ubwcC6AWdPn1aJpM9e/YsMjJSp9P1QaG5uRlCYAlfQFFUfHw8AGDatGkw8II22c3NLTk5mabpJ0+ejBkzJj4+HtaIvc0MYh9pv3z5skgkAgBMnz798ePHphZt2bJlKIrevXvXkmAZWkHo+TKyDVXghAkTAAA+Pj6//e1vW1tbURR9C0SYGVn4zW9+88033+A4fu/eveTkZMZrpGkaBp3u7u6WHAQAgJubG4ZhSqWyp6cHfgJL42AgAADYu3fvnDlz/v0VxCg6e/bswMBAo9Fo6r/q9fr6+nqxWAwVtiUxglQqtba2bm9vZygHsVhsbW3NxEISiSQ8PPwtbHLI0ANy8yiKBgcHMxBUVlZqtVrov1kIgbu7u1gsRhDk0KFD8CywWKzY2FiGFHg7wt/W1lZfX28GBZqm79+/X1FRYW9vDw8p/PzBgwdGo9HPz8/y0kuSJCMiImDi9MqVK6YZ4bdZO7Fr164B0zPQNtfV1c2fPx/HcTabvX79etO8dmRkJI7jaWlpQy4YMaNsy8rKuFwuFDCVSvX2FT5JknPnzo2OjmZ8G8gRq1Sq06dPL1q0SCgUcjicefPm5eXlMQlOmAR77733BAJBfn7+iLJJTLCMYdinn37ahwKGq9FoNOap4RFCsGbNGisrq+zs7K6urlevXpWUlMTFxUmlUljp5unpefXqVRgmwPVotVqDwVBVVeXi4uLq6mqe+x9WQq2oqAhaRxiTQB4ODr1en5KSIpPJkpKS3tDpgAuAmWI2mw1ZbACAi4tLeHj42bNnTSsIOjo6Dh48uH79epVKdf78eVj+O5ySD2TIRSQmJkJSEEVRd3f3Y8eONTY2FhcXz5o1C6piy6oDBkxG9CnDh7mMjIyMVatWhYeHR0dHHz58+OHDh5DIg7jDqtysrCw7Ozs+n3///n2KopYsWYJhWFRU1OjUF+j1+oSEBJhf78OaCIXCffv2DSe2G2Yu9Pe///369evT0tJyc3Orqqp6enoMBoNer9fpdHq9Xq/XGwwGuHmSJJVKZW5ublxc3JQpU9hsNo/HS0lJIQiipqbGysoKx/FLly6NWpUJQRDHjx+HtZamtnDlypWjsn8my97Y2Ojl5QUhZrPZIpHIx8dnxowZCxcu/OCDD6KioiIjIzdv3qxUKpcvX87hcCC/BF/M4sWLtVotSZKJiYkoijo4OGi12tGsNYL+ZmJi4vTp06FrAADYvXv3qLz/rq6uy5cvw8qNR48eRUZGmknh2tnZ3b9/HxaXwcHhcKKjoyFzqVKpgoKCAABr164dJnmBvNa7oiiKIIjvvvsOrm/16tXmFeEwF1FQUCASiVJSUiAlBTsxoqKipFKpQCDok4kTiUS3b98OCQmBEaqvr+/ly5ehRaRp+saNG5DFuXTp0jA11Gs35hiNxvr6erlcTtM0TP5AcmnAUVhYKJVK5XK5+TlJkrx06VJSUlJqaurUqVNRFDX+o82hpqamqampra2to6Pj1atXBEHweLyNGzdWV1d3dna6u7uPHz9eIBBAL1ij0YSEhCgUCplMduPGDVdX1zfVmEMQBCylcHZ2Nk8TNTQ0rFmzBkbyQ7oAycnJ1tbWV69e1Wq1/esRhyxVpGk6KysL6ulNmzYNn8KzsBJ97dq1KIriOJ6Tk2NG3giC+OUvf/nll18ORya7u7tDQ0NFItHixYtPnDjR1NRkpnlpwMx6QEAAAMDT09N8KcBIDwKMTL777ruVK1fqdLoZM2bcunVrsLyz0WhMS0vbsWPH9evXZ86cOWTQ9vLly+Dg4IqKCqjnXVxcAgICPDw8JBIJj8eDbgIcfD5/48aNIpGIWVJiYuLevXsxDEtNTY2IiHiNFj7LbNiLFy8mTJgABeH+/ftmXnJbW9u7774bGBjY2to6pCxQFKVQKAIDA00zC9BDZwaLxbKxsTl69CijiSmKys3NhRrBz89PqVS+2WJ8Zty+fZvH46EounPnTjMHD1p7sVg8ceLE9vb2IRdH07ROp0tJSfHy8hKLxTY2NiKRSCQS2draisViT0/PtWvXPnjwwDRw6ujogIYQRdEDBw687kYsh4Akyc2bNwMA/Pz8Ojs7zb/bEydOcDicFStWDL/c2GAwNDY2Pnz4UKFQQEagubm5vydGkiSs94OBzNmzZ98eBEajMTc318rKasAU6IDlkHw+f8eOHcN02ky9xsFUIEVRZ86cYYgsSGo2NDS8pYNA0/T169dhQ7mbm9uQSRSCIBISEjgcTkxMzMjja+hB5eTk9Kl0xDBs1qxZNTU1b6olw/S4Pn78ePLkyUz9f3x8/JCm2GAwbN++3crKKiwsDPasWnwGW1tbP/74YxgjoCgqlUoDAwMZalcmkz148GCU+xH6qLfNmzfDGg5muLm5PXnyZMh3SxAE7KCZNGnSuXPnTKme4aN/5MgRhiaEjsDNmzdbW1sXL17M2EIvL68zZ84MB4XXg0ClUqWnp8P2NGixBAIBU/wuk8mGbMmFnN8f//hHGxsbHMfDw8Nra2s1Gs1wNt/V1XXr1q0ZM2YwASsUe2gFaZrWarUrVqyA7AZc27Fjx4aMZZFhYk8QRHZ29owZM2DQgqKolZVVREREXl5eZmYmDOxg2963336r0WgGA4Khty5cuAA9C4lEsmjRolOnTnV2dkIuAMoF07yu1WqLi4vj4+NnzpzZJ4Lk8XihoaHr1q2DvXIwPR0TE8O4FQKB4KOPPoI9tJZDQBBEZWXl4sWL4bwYhonF4qVLl9bU1DDxWVpaGtOzgOP4tGnTcnJyamtrlUqlWq0mCALuTafT/fTTT6tWrfLx8ZHJZNOnT4flQHBaZ2fnDRs2ZGVlFRQUKBSK/Pz89PT0qKgoLy8vFos1oLfH+E4+Pj4qlQouhiCIrVu38ng8CBaO4zt27DBTBDQEd9jR0REbGwtDLrjQyMjIkpKSPpoPEhWmRXcAABsbGz8/v7lz565cuXL79u3JyclxcXEM+zT8NAT412H6oYuLC9OkGRERwZRb9Pb2JiQkMMYSw7Dw8HBT4nNYEOh0OoVCERAQAI89juOTJ08uKCgYTIFpNJoVK1ZAFyUoKOjkyZOhoaHvvPOOh4eHVCq1t7cXCARQjkQi0bhx48aOHSsWi/vX6QmFQrFYbGVlxeVyra2tHR0dvb29w8LCkpOTv/76aw8PD1gQHBwcfPv2bYIg9Hr97t27YeswTLowb+XMmTMSiQSixmKx/vznPw94PJEBX35bW1t0dDRMq8OrF44ePdra2mpG1dE0rVarN2zYwGaz7e3tT506pdFoVCpVQ0NDRUWFQqG4du0aRCErK0uj0bS3tz98+PD06dOrVq2ytbVl5FwqlcbHx1+5cuWHH34oLCx8/PixSqWC7TZisRjDMB8fn/Pnz2s0GkZlNDc3y+VymDXoc4QLCwtlMhnT4z+g2Ub6OFtqtTovL8/Lywu+fC6XGxQUVFFRMRzrAs/hyZMnYbfaunXrKisr1Wo11HClpaUsFksqlfbxkSFHFBERAWvNYCHbvHnzLly4UFFRUVVV9fTp040bN0IqMTIyEk7YRwDDwsJQFM3MzOzPMty5cwc21mAYNqBjipgu5erVq2FhYUKhEMLG5/MPHDgw2BEyM+rq6pKSkiQSiUQiCQ0N/eKLL3766SfoyaxatWow+KqqqtLS0saOHcscez6f7+DgAIVRIpH8/e9/H3APJElu2rQJRdG9e/f2f1UqlSowMBBBkDFjxgwqBTRNt7a2Ll++nLG3KIoGBgaWlJRY1k0K7VlDQ8Pq1audnZ1hkAu1aUJCgvm/am5uXr16tUwm43K5Xl5en3zyyc6dO+3s7HAcLywsbGtr6+7u7rNPiqIOHDiAomhMTMyAELz77rsoioaFhQ2qCyiKioqKgi0zzGUxjY2NI8wRwXNRXl6+d+9eJycnGPbv379/SMpAp9NVVFT4+vqmp6eTJEkQRFZWFrwiJTY29m9/+1tbW1ufP8nJycEwLDo6un/BakNDg0wmwzDsyJEjg0JAEATj4UkkkoMHDw6H7Rv+oCiqsbHxww8/ZLFYSUlJ5p988ODB7t27ZTIZjuOpqanQ1Dc0NFhZWS1evBi6GP27JL///nsMw7Zv394fgpKSEpFI5ODgUFxcPKBEo6bckb29fWZm5tatW833oFhQCOLm5vbll18KBAJYs2KGkrOxsZk/f/7mzZtdXFyYoOP69esEQXC5XBzHB7zg69WrV7Dqo/9Xjx8/7u3tdXJygqZh4GveUBQdP358cXExdCTfUO0Em82WyWSwCmzQS+dw3NPT09PTc9q0aS9evDh37lx6enpzc/OBAwcoilKpVM+ePbO1tYUya8r91dbWwirZ/ovPz89HEGTmzJm2trbmbrr71a9+Bdmow4cPww6/UYcAw7CJEyfm5eXRNG2G2wQAGP/R3V5bWxsTE4OiqJeXV09PD8ygSCQST0/PgIAAqVQqFoslEgmfzy8sLBSJRNBxMh0UReXl5QEAli9fPsRNdDdv3hQKhXChpaWlb6JegKbpI0eOsNls8zeuwAtRtm7dyuVyg4ODw8LCzp07p9frVSrV9u3bHRwcmK5vmG7ncDiw0Egul/epA6Fpury8HMOwsWPHmokX/18LtLS0+Pr6wkOxadOmUbyGyXT8+OOPPB7vr3/9q5k48unTp8HBwTiOz5o1y9QlgRXnd+/ejYmJcXV1FQgEO3bsyMrKSklJgQkoR0dH07tljP+4WwVF0djYWDPWDWF+ALbVQzr0tVIRwx9qtVoqlYaFhQ3oohAEcffuXT8/P9gQJxAImOJikiQrKirgdWbQF/Tz82OSS729vXv27OHxeO+9956pvdRoNL/+9a+5XG5ubq6ZVf2TeFy3bl1mZiZBENXV1cePH5fJZKOuDmia9vb2LigoePnyJfT5mBOr1WqTkpIyMjI0Gg3szamvr9+1a9eGDRsQBOnt7U1MTEQQZNu2bRiGwVaFvLw8ZuYpU6bMmTPn+vXrFy5cWLBgAfxQqVTW1NQ4Ojp6eXkNK5UC2zsZM4a/gQEvL0AQJCEhAVr47u7u8vLyzz//XCKRMEwUPO1MEoUxhNC/hJP0X6GpjoADfhgSEmLezcFNrfeqVauKiorguYBG+A1VE544cUIsFqtUqnv37v3888+wzNlMhnokFbpLly413yv+xu8+/c8f/7sE+H8Q/A+C/0GAIAjyf6tVPrGmnkiPAAAAAElFTkSuQmCC;" vertex="1" parent="1">
          <mxGeometry x="1000" y="370" width="66" height="70.6" as="geometry" />
        </mxCell>
        <mxCell id="ozPDJMpgmjUV9LJB_S5g-13" value="Amazon RDS" style="sketch=0;outlineConnect=0;fontColor=#232F3E;gradientColor=none;strokeColor=#ffffff;fillColor=#232F3E;dashed=0;verticalLabelPosition=middle;verticalAlign=bottom;align=center;html=1;whiteSpace=wrap;fontSize=10;fontStyle=1;spacing=3;shape=mxgraph.aws4.productIcon;prIcon=mxgraph.aws4.rds;" vertex="1" parent="1">
          <mxGeometry x="845" y="270" width="87.75" height="2.25" as="geometry" />
        </mxCell>
        <mxCell id="ozPDJMpgmjUV9LJB_S5g-14" value="" style="outlineConnect=0;dashed=0;verticalLabelPosition=bottom;verticalAlign=top;align=center;html=1;shape=mxgraph.aws3.rds_db_instance;fillColor=#2E73B8;gradientColor=none;fontColor=#FF9933;strokeColor=#3399FF;" vertex="1" parent="1">
          <mxGeometry x="859.75" y="500" width="49" height="42" as="geometry" />
        </mxCell>
        <mxCell id="ozPDJMpgmjUV9LJB_S5g-16" value="" style="outlineConnect=0;dashed=0;verticalLabelPosition=bottom;verticalAlign=top;align=center;html=1;shape=mxgraph.aws3.rds_db_instance_standby_multi_az;fillColor=#2E73B8;gradientColor=none;fontColor=#FF9933;strokeColor=#3399FF;" vertex="1" parent="1">
          <mxGeometry x="864.38" y="290" width="49" height="42" as="geometry" />
        </mxCell>
        <mxCell id="ozPDJMpgmjUV9LJB_S5g-20" value="Auto Scaling Group" style="sketch=0;outlineConnect=0;gradientColor=none;html=1;whiteSpace=wrap;fontSize=12;fontStyle=0;shape=mxgraph.aws4.groupCenter;grIcon=mxgraph.aws4.group_auto_scaling_group;grStroke=0;strokeColor=#879196;fillColor=#ECEFEF;verticalAlign=top;align=center;fontColor=#879196;dashed=0;spacingTop=25;" vertex="1" parent="1">
          <mxGeometry x="350" y="140" width="170" height="620" as="geometry" />
        </mxCell>
        <mxCell id="ozPDJMpgmjUV9LJB_S5g-21" value="Auto Scaling Group" style="sketch=0;outlineConnect=0;gradientColor=none;html=1;whiteSpace=wrap;fontSize=12;fontStyle=0;shape=mxgraph.aws4.groupCenter;grIcon=mxgraph.aws4.group_auto_scaling_group;grStroke=0;strokeColor=#879196;fillColor=#ECEFEF;verticalAlign=top;align=center;fontColor=#879196;dashed=0;spacingTop=25;" vertex="1" parent="1">
          <mxGeometry x="595" y="140" width="160" height="620" as="geometry" />
        </mxCell>
        <mxCell id="ozPDJMpgmjUV9LJB_S5g-25" value="" style="sketch=0;outlineConnect=0;gradientColor=none;html=1;whiteSpace=wrap;fontSize=12;fontStyle=0;shape=mxgraph.aws4.groupCenter;;grStroke=0;strokeColor=#879196;fillColor=#C7C9C9;verticalAlign=top;align=center;fontColor=#879196;dashed=0;spacingTop=25;strokeWidth=0;" vertex="1" parent="1">
          <mxGeometry x="938.25" y="128" width="140.25" height="220" as="geometry" />
        </mxCell>
        <mxCell id="ozPDJMpgmjUV9LJB_S5g-27" value="" style="outlineConnect=0;dashed=0;verticalLabelPosition=bottom;verticalAlign=top;align=center;html=1;shape=mxgraph.aws3.android;fillColor=#EE472A;gradientColor=none;fontColor=#FF9933;strokeColor=#3399FF;strokeWidth=0;" vertex="1" parent="1">
          <mxGeometry x="952.5" y="143" width="33" height="37" as="geometry" />
        </mxCell>
        <mxCell id="ozPDJMpgmjUV9LJB_S5g-28" value="" style="outlineConnect=0;dashed=0;verticalLabelPosition=bottom;verticalAlign=top;align=center;html=1;shape=mxgraph.aws3.android;fillColor=#FFD44F;gradientColor=none;fontColor=#FF9933;strokeColor=#3399FF;strokeWidth=0;" vertex="1" parent="1">
          <mxGeometry x="1029.5" y="143" width="33" height="37" as="geometry" />
        </mxCell>
        <mxCell id="ozPDJMpgmjUV9LJB_S5g-29" value="" style="outlineConnect=0;dashed=0;verticalLabelPosition=bottom;verticalAlign=top;align=center;html=1;shape=mxgraph.aws3.android;fillColor=#AE1F23;gradientColor=none;fontColor=#FF9933;strokeColor=#3399FF;strokeWidth=0;" vertex="1" parent="1">
          <mxGeometry x="950" y="220.75" width="33" height="37" as="geometry" />
        </mxCell>
        <mxCell id="ozPDJMpgmjUV9LJB_S5g-30" value="" style="outlineConnect=0;dashed=0;verticalLabelPosition=bottom;verticalAlign=top;align=center;html=1;shape=mxgraph.aws3.android;fillColor=#8CC64F;gradientColor=none;fontColor=#FF9933;strokeColor=#3399FF;strokeWidth=0;" vertex="1" parent="1">
          <mxGeometry x="1029.5" y="219.5" width="33" height="37" as="geometry" />
        </mxCell>
        <mxCell id="ozPDJMpgmjUV9LJB_S5g-31" value="" style="outlineConnect=0;dashed=0;verticalLabelPosition=bottom;verticalAlign=top;align=center;html=1;shape=mxgraph.aws3.android;fillColor=#9999FF;gradientColor=none;fontColor=#FF9933;strokeColor=#3399FF;strokeWidth=0;" vertex="1" parent="1">
          <mxGeometry x="952.5" y="285.5" width="33" height="37" as="geometry" />
        </mxCell>
        <mxCell id="ozPDJMpgmjUV9LJB_S5g-32" value="" style="outlineConnect=0;dashed=0;verticalLabelPosition=bottom;verticalAlign=top;align=center;html=1;shape=mxgraph.aws3.android;fillColor=#115193;gradientColor=none;fontColor=#FF9933;strokeColor=#3399FF;strokeWidth=0;" vertex="1" parent="1">
          <mxGeometry x="1029.5" y="285.5" width="33" height="37" as="geometry" />
        </mxCell>
        <mxCell id="ozPDJMpgmjUV9LJB_S5g-33" value="Amazon&#xa;Aurora" style="sketch=0;outlineConnect=0;fontColor=#232F3E;gradientColor=none;strokeColor=#ffffff;fillColor=#232F3E;dashed=0;verticalLabelPosition=middle;verticalAlign=bottom;align=center;html=1;whiteSpace=wrap;fontSize=10;fontStyle=1;spacing=3;shape=mxgraph.aws4.productIcon;prIcon=mxgraph.aws4.aurora;" vertex="1" parent="1">
          <mxGeometry x="976" y="470" width="90" height="120" as="geometry" />
        </mxCell>
        <mxCell id="ozPDJMpgmjUV9LJB_S5g-35" value="" style="outlineConnect=0;dashed=0;verticalLabelPosition=bottom;verticalAlign=top;align=center;html=1;shape=mxgraph.aws3.memcached;fillColor=#888A8A;gradientColor=none;fontColor=#FF9933;strokeColor=#3399FF;strokeWidth=0;" vertex="1" parent="1">
          <mxGeometry x="854.01" y="640" width="75.99" height="80" as="geometry" />
        </mxCell>
        <mxCell id="ozPDJMpgmjUV9LJB_S5g-36" value="" style="sketch=0;points=[[0,0,0],[0.25,0,0],[0.5,0,0],[0.75,0,0],[1,0,0],[0,1,0],[0.25,1,0],[0.5,1,0],[0.75,1,0],[1,1,0],[0,0.25,0],[0,0.5,0],[0,0.75,0],[1,0.25,0],[1,0.5,0],[1,0.75,0]];outlineConnect=0;fontColor=#232F3E;gradientColor=#7EA6E0;gradientDirection=north;fillColor=#003366;strokeColor=#ffffff;dashed=0;verticalLabelPosition=bottom;verticalAlign=top;align=center;html=1;fontSize=12;fontStyle=0;aspect=fixed;shape=mxgraph.aws4.resourceIcon;resIcon=mxgraph.aws4.efs_standard;" vertex="1" parent="1">
          <mxGeometry x="988" y="640" width="78" height="78" as="geometry" />
        </mxCell>
        <mxCell id="ozPDJMpgmjUV9LJB_S5g-37" value="" style="outlineConnect=0;dashed=0;verticalLabelPosition=bottom;verticalAlign=top;align=center;html=1;shape=mxgraph.aws3.postgre_sql_instance;fillColor=#2E73B8;gradientColor=none;fontColor=#FF9933;strokeColor=#3399FF;strokeWidth=0;" vertex="1" parent="1">
          <mxGeometry x="1029.5" y="494" width="51" height="54" as="geometry" />
        </mxCell>
      </root>
    </mxGraphModel>
  </diagram>
</mxfile>
